<svg width="100%" viewBox="0 50 560 80" role="img" style="" xmlns="http://www.w3.org/2000/svg">
  <title style="fill:rgb(0, 0, 0);stroke:none;color:rgb(120, 120, 120);stroke-width:1px;stroke-linecap:butt;stroke-linejoin:miter;opacity:1;font-family:&quot;Anthropic Sans&quot;, -apple-system, BlinkMacSystemFont, &quot;Segoe UI&quot;, sans-serif;font-size:16px;font-weight:400;text-anchor:start;dominant-baseline:auto">ISA reference diagram for tt_um_amarjay 8-bit CPU</title>
  <desc style="fill:rgb(0, 0, 0);stroke:none;color:rgb(120, 120, 120);stroke-width:1px;stroke-linecap:butt;stroke-linejoin:miter;opacity:1;font-family:&quot;Anthropic Sans&quot;, -apple-system, BlinkMacSystemFont, &quot;Segoe UI&quot;, sans-serif;font-size:16px;font-weight:400;text-anchor:start;dominant-baseline:auto">Instruction format, opcode table, and ALU sub-opcode table for the 8-bit accumulator CPU</desc>
  <defs>
    <marker id="arrow" viewBox="0 0 10 10" refX="8" refY="5" markerWidth="6" markerHeight="6" orient="auto-start-reverse">
      <path d="M2 1L8 5L2 9" fill="none" stroke="context-stroke" stroke-width="1.5" stroke-linecap="round" stroke-linejoin="round"/>
    </marker>
  <mask id="imagine-text-gaps-oalb8s" maskUnits="userSpaceOnUse"><rect x="0" y="0" width="680" height="920" fill="white"/><rect x="36" y="20" width="185.85000610351562" height="22" fill="black" rx="2"/><rect x="101.00833129882812" y="60" width="57.983333587646484" height="22" fill="black" rx="2"/><rect x="77.09166717529297" y="79.5" width="105.81666564941406" height="19" fill="black" rx="2"/><rect x="306.8416748046875" y="60" width="134.31666564941406" height="22" fill="black" rx="2"/><rect x="320.32501220703125" y="79.5" width="107.3499984741211" height="19" fill="black" rx="2"/><rect x="36" y="108.5" width="14.383333206176758" height="19" fill="black" rx="2"/><rect x="201.25" y="108.5" width="15.25" height="19" fill="black" rx="2"/><rect x="220" y="108.5" width="15.349999904632568" height="19" fill="black" rx="2"/><rect x="511.75" y="108.5" width="15.25" height="19" fill="black" rx="2"/><rect x="36" y="140" width="98.41666412353516" height="22" fill="black" rx="2"/><rect x="66.00833129882812" y="171" width="57.983333587646484" height="22" fill="black" rx="2"/><rect x="176.27499389648438" y="171" width="77.78333282470703" height="22" fill="black" rx="2"/><rect x="348.8166809082031" y="171" width="72.36666870117188" height="22" fill="black" rx="2"/><rect x="526.4749755859375" y="171" width="87.61666870117188" height="22" fill="black" rx="2"/><rect x="78.25" y="205" width="33.5" height="22" fill="black" rx="2"/><rect x="184.84165954589844" y="206.5" width="60.81666564941406" height="19" fill="black" rx="2"/><rect x="335.5333251953125" y="206.5" width="98.93333435058594" height="19" fill="black" rx="2"/><rect x="556.1500244140625" y="206.5" width="27.700000762939453" height="19" fill="black" rx="2"/><rect x="79.80000305175781" y="241" width="30.399999618530273" height="22" fill="black" rx="2"/><rect x="179.44166564941406" y="242.5" width="71.61666488647461" height="19" fill="black" rx="2"/><rect x="342.9750061035156" y="242.5" width="84.55000305175781" height="19" fill="black" rx="2"/><rect x="556.1500244140625" y="242.5" width="27.700000762939453" height="19" fill="black" rx="2"/><rect x="79.80000305175781" y="277" width="30.399999618530273" height="22" fill="black" rx="2"/><rect x="180.93333435058594" y="278.5" width="68.63333511352539" height="19" fill="black" rx="2"/><rect x="342.9750061035156" y="278.5" width="84.55000305175781" height="19" fill="black" rx="2"/><rect x="556.1500244140625" y="278.5" width="27.700000762939453" height="19" fill="black" rx="2"/><rect x="81.3499984741211" y="313" width="27.299999237060547" height="22" fill="black" rx="2"/><rect x="172.05833435058594" y="314.5" width="85.88333129882812" height="19" fill="black" rx="2"/><rect x="301.9333190917969" y="314.5" width="166.36666870117188" height="19" fill="black" rx="2"/><rect x="549.0416870117188" y="314.5" width="41.91666793823242" height="19" fill="black" rx="2"/><rect x="79.80000305175781" y="349" width="30.399999618530273" height="22" fill="black" rx="2"/><rect x="198.27499389648438" y="350.5" width="33.58333396911621" height="19" fill="black" rx="2"/><rect x="302.875" y="350.5" width="164.25" height="19" fill="black" rx="2"/><rect x="558.9249877929688" y="350.5" width="22.18333339691162" height="19" fill="black" rx="2"/><rect x="81.3499984741211" y="385" width="27.299999237060547" height="22" fill="black" rx="2"/><rect x="182.46665954589844" y="386.5" width="65.56666564941406" height="19" fill="black" rx="2"/><rect x="323.4166564941406" y="386.5" width="123.66666412353516" height="19" fill="black" rx="2"/><rect x="558.9249877929688" y="386.5" width="22.18333339691162" height="19" fill="black" rx="2"/><rect x="81.3499984741211" y="421" width="27.299999237060547" height="22" fill="black" rx="2"/><rect x="187.19166564941406" y="422.5" width="56.11666488647461" height="19" fill="black" rx="2"/><rect x="323.4166564941406" y="422.5" width="123.66666412353516" height="19" fill="black" rx="2"/><rect x="558.9249877929688" y="422.5" width="22.18333339691162" height="19" fill="black" rx="2"/><rect x="82.9000015258789" y="457" width="24.200000762939453" height="22" fill="black" rx="2"/><rect x="181.85833740234375" y="458.5" width="66.78333282470703" height="19" fill="black" rx="2"/><rect x="305.2250061035156" y="458.5" width="159.5500030517578" height="19" fill="black" rx="2"/><rect x="558.9249877929688" y="458.5" width="22.18333339691162" height="19" fill="black" rx="2"/><rect x="56" y="501.5" width="144.03334045410156" height="19" fill="black" rx="2"/><rect x="236" y="501.5" width="108.18333435058594" height="19" fill="black" rx="2"/><rect x="396" y="501.5" width="108.18333435058594" height="19" fill="black" rx="2"/><rect x="36" y="530" width="353.0333251953125" height="22" fill="black" rx="2"/><rect x="66.05833435058594" y="561" width="67.88333511352539" height="22" fill="black" rx="2"/><rect x="176.27499389648438" y="561" width="77.78333282470703" height="22" fill="black" rx="2"/><rect x="383.8166809082031" y="561" width="72.36666870117188" height="22" fill="black" rx="2"/><rect x="79" y="592" width="42" height="22" fill="black" rx="2"/><rect x="199.78334045410156" y="593.5" width="30.700000762939453" height="19" fill="black" rx="2"/><rect x="356.9583435058594" y="593.5" width="126.08333587646484" height="19" fill="black" rx="2"/><rect x="80.55000305175781" y="622" width="38.89999961853027" height="22" fill="black" rx="2"/><rect x="199.18333435058594" y="623.5" width="31.96666717529297" height="19" fill="black" rx="2"/><rect x="400.1833190917969" y="623.5" width="39.89999961853027" height="19" fill="black" rx="2"/><rect x="80.55000305175781" y="652" width="38.89999961853027" height="22" fill="black" rx="2"/><rect x="204.64166259765625" y="653.5" width="20.716666221618652" height="19" fill="black" rx="2"/><rect x="339.64166259765625" y="653.5" width="160.71665954589844" height="19" fill="black" rx="2"/><rect x="82.0999984741211" y="682" width="35.79999923706055" height="22" fill="black" rx="2"/><rect x="193.47500610351562" y="683.5" width="43.31666564941406" height="19" fill="black" rx="2"/><rect x="389.1166687011719" y="683.5" width="62.03333282470703" height="19" fill="black" rx="2"/><rect x="80.55000305175781" y="712" width="38.89999961853027" height="22" fill="black" rx="2"/><rect x="198.0749969482422" y="713.5" width="34.11666679382324" height="19" fill="black" rx="2"/><rect x="391.39166259765625" y="713.5" width="57.483333587646484" height="19" fill="black" rx="2"/><rect x="82.0999984741211" y="742" width="35.79999923706055" height="22" fill="black" rx="2"/><rect x="194.35000610351562" y="743.5" width="41.56666564941406" height="19" fill="black" rx="2"/><rect x="389.375" y="743.5" width="61.516666412353516" height="19" fill="black" rx="2"/><rect x="82.0999984741211" y="772" width="35.79999923706055" height="22" fill="black" rx="2"/><rect x="193.75" y="773.5" width="42.766666412353516" height="19" fill="black" rx="2"/><rect x="389.375" y="773.5" width="61.516666412353516" height="19" fill="black" rx="2"/><rect x="83.6500015258789" y="802" width="32.70000076293945" height="22" fill="black" rx="2"/><rect x="195.24166870117188" y="803.5" width="39.78333282470703" height="19" fill="black" rx="2"/><rect x="389.375" y="803.5" width="61.516666412353516" height="19" fill="black" rx="2"/><rect x="80.55000305175781" y="832" width="38.89999961853027" height="22" fill="black" rx="2"/><rect x="199.5500030517578" y="833.5" width="31.03333282470703" height="19" fill="black" rx="2"/><rect x="363.1499938964844" y="833.5" width="113.69999694824219" height="19" fill="black" rx="2"/><rect x="82.0999984741211" y="862" width="35.79999923706055" height="22" fill="black" rx="2"/><rect x="198.9250030517578" y="863.5" width="32.14999961853027" height="19" fill="black" rx="2"/><rect x="363.1499938964844" y="863.5" width="113.69999694824219" height="19" fill="black" rx="2"/></mask></defs>

  <!-- ── Section header: Instruction format ── -->
  <text x="40" y="65" style="fill:rgb(125, 120, 125);stroke:none;color:rgb(120, 120, 120);stroke-width:1px;stroke-linecap:butt;stroke-linejoin:miter;opacity:1;font-family:&quot;Anthropic Sans&quot;, -apple-system, BlinkMacSystemFont, &quot;Segoe UI&quot;, sans-serif;font-size:14px;font-weight:500;text-anchor:start;dominant-baseline:auto">Instruction format — 8 bits</text>

  <!-- Bit field boxes -->
  <!-- Opcode [7:5] -->
  <g style="fill:rgb(0, 0, 0);stroke:none;color:rgb(120, 120, 120);stroke-width:1px;stroke-linecap:butt;stroke-linejoin:miter;opacity:1;font-family:&quot;Anthropic Sans&quot;, -apple-system, BlinkMacSystemFont, &quot;Segoe UI&quot;, sans-serif;font-size:16px;font-weight:400;text-anchor:start;dominant-baseline:auto">
    <rect x="40" y="70" width="180" height="40" rx="4" stroke-width="0.5" style="fill:rgb(60, 52, 137);stroke:rgb(175, 169, 236);color:rgb(120, 120, 120);stroke-width:0.5px;stroke-linecap:butt;stroke-linejoin:miter;opacity:1;font-family:&quot;Anthropic Sans&quot;, -apple-system, BlinkMacSystemFont, &quot;Segoe UI&quot;, sans-serif;font-size:16px;font-weight:400;text-anchor:start;dominant-baseline:auto"/>
    <text x="130" y="91" text-anchor="middle" dominant-baseline="central" style="fill:rgb(206, 203, 246);stroke:none;color:rgb(120, 120, 120);stroke-width:1px;stroke-linecap:butt;stroke-linejoin:miter;opacity:1;font-family:&quot;Anthropic Sans&quot;, -apple-system, BlinkMacSystemFont, &quot;Segoe UI&quot;, sans-serif;font-size:14px;font-weight:500;text-anchor:middle;dominant-baseline:central">opcode</text>
    <!-- <text x="130" y="89" text-anchor="middle" dominant-baseline="central" style="fill:rgb(175, 169, 236);stroke:none;color:rgb(120, 120, 120);stroke-width:1px;stroke-linecap:butt;stroke-linejoin:miter;opacity:1;font-family:&quot;Anthropic Sans&quot;, -apple-system, BlinkMacSystemFont, &quot;Segoe UI&quot;, sans-serif;font-size:12px;font-weight:400;text-anchor:middle;dominant-baseline:central">bits [7:5]  — 3 bits</text> -->
  </g>
  <!-- Operand [4:0] -->
  <g style="fill:rgb(0, 0, 0);stroke:none;color:rgb(120, 120, 120);stroke-width:1px;stroke-linecap:butt;stroke-linejoin:miter;opacity:1;font-family:&quot;Anthropic Sans&quot;, -apple-system, BlinkMacSystemFont, &quot;Segoe UI&quot;, sans-serif;font-size:16px;font-weight:400;text-anchor:start;dominant-baseline:auto">
    <rect x="224" y="70" width="300" height="40" rx="4" stroke-width="0.5" style="fill:rgb(8, 80, 65);stroke:rgb(93, 202, 165);color:rgb(120, 120, 120);stroke-width:0.5px;stroke-linecap:butt;stroke-linejoin:miter;opacity:1;font-family:&quot;Anthropic Sans&quot;, -apple-system, BlinkMacSystemFont, &quot;Segoe UI&quot;, sans-serif;font-size:16px;font-weight:400;text-anchor:start;dominant-baseline:auto"/>
    <text x="374" y="91" text-anchor="middle" dominant-baseline="central" style="fill:rgb(159, 225, 203);stroke:none;color:rgb(120, 120, 120);stroke-width:1px;stroke-linecap:butt;stroke-linejoin:miter;opacity:1;font-family:&quot;Anthropic Sans&quot;, -apple-system, BlinkMacSystemFont, &quot;Segoe UI&quot;, sans-serif;font-size:14px;font-weight:500;text-anchor:middle;dominant-baseline:central">imm5 / sub-opcode</text>
    <!-- <text x="374" y="89" text-anchor="middle" dominant-baseline="central" style="fill:rgb(93, 202, 165);stroke:none;color:rgb(120, 120, 120);stroke-width:1px;stroke-linecap:butt;stroke-linejoin:miter;opacity:1;font-family:&quot;Anthropic Sans&quot;, -apple-system, BlinkMacSystemFont, &quot;Segoe UI&quot;, sans-serif;font-size:12px;font-weight:400;text-anchor:middle;dominant-baseline:central">bits [4:0]  — 5 bits</text> -->
  </g>

  <!-- Bit numbers -->
  <text x="40" y="118" dominant-baseline="central" style="fill:rgb(94, 92, 82);stroke:none;color:rgb(120, 120, 120);stroke-width:1px;stroke-linecap:butt;stroke-linejoin:miter;opacity:1;font-family:&quot;Anthropic Sans&quot;, -apple-system, BlinkMacSystemFont, &quot;Segoe UI&quot;, sans-serif;font-size:12px;font-weight:400;text-anchor:start;dominant-baseline:central">7</text>
  <text x="212" y="118" dominant-baseline="central" text-anchor="end" style="fill:rgb(94, 92, 82);stroke:none;color:rgb(120, 120, 120);stroke-width:1px;stroke-linecap:butt;stroke-linejoin:miter;opacity:1;font-family:&quot;Anthropic Sans&quot;, -apple-system, BlinkMacSystemFont, &quot;Segoe UI&quot;, sans-serif;font-size:12px;font-weight:400;text-anchor:end;dominant-baseline:central">5</text>
  <text x="224" y="118" dominant-baseline="central" style="fill:rgb(94, 92, 82);stroke:none;color:rgb(120, 120, 120);stroke-width:1px;stroke-linecap:butt;stroke-linejoin:miter;opacity:1;font-family:&quot;Anthropic Sans&quot;, -apple-system, BlinkMacSystemFont, &quot;Segoe UI&quot;, sans-serif;font-size:12px;font-weight:400;text-anchor:start;dominant-baseline:central">4</text>
  <text x="523" y="118" dominant-baseline="central" text-anchor="end" style="fill:rgb(94, 92, 82);stroke:none;color:rgb(120, 120, 120);stroke-width:1px;stroke-linecap:butt;stroke-linejoin:miter;opacity:1;font-family:&quot;Anthropic Sans&quot;, -apple-system, BlinkMacSystemFont, &quot;Segoe UI&quot;, sans-serif;font-size:12px;font-weight:400;text-anchor:end;dominant-baseline:central">0</text>

  <!-- Bit bracket lines -->
  <line x1="40" y1="108" x2="40" y2="125" stroke="var(--t)" stroke-width="0.5" mask="url(#imagine-text-gaps-oalb8s)" style="fill:rgb(0, 0, 0);stroke:rgb(56, 54, 46);color:rgb(120, 120, 120);stroke-width:3px;stroke-linecap:butt;stroke-linejoin:miter;opacity:1;font-family:&quot;Anthropic Sans&quot;, -apple-system, BlinkMacSystemFont, &quot;Segoe UI&quot;, sans-serif;font-size:16px;font-weight:800;text-anchor:start;dominant-baseline:auto"/>
  <line x1="220" y1="108" x2="220" y2="125" stroke="var(--t)" stroke-width="0.5" mask="url(#imagine-text-gaps-oalb8s)" style="fill:rgb(0, 0, 0);stroke:rgb(56, 54, 46);color:rgb(120, 120, 120);stroke-width:3px;stroke-linecap:butt;stroke-linejoin:miter;opacity:1;font-family:&quot;Anthropic Sans&quot;, -apple-system, BlinkMacSystemFont, &quot;Segoe UI&quot;, sans-serif;font-size:16px;font-weight:800;text-anchor:start;dominant-baseline:auto"/>
  <line x1="224" y1="108" x2="224" y2="125" stroke="var(--t)" stroke-width="0.5" mask="url(#imagine-text-gaps-oalb8s)" style="fill:rgb(0, 0, 0);stroke:rgb(56, 54, 46);color:rgb(120, 120, 120);stroke-width:3px;stroke-linecap:butt;stroke-linejoin:miter;opacity:1;font-family:&quot;Anthropic Sans&quot;, -apple-system, BlinkMacSystemFont, &quot;Segoe UI&quot;, sans-serif;font-size:16px;font-weight:800;text-anchor:start;dominant-baseline:auto"/>
  <line x1="524" y1="108" x2="524" y2="125" stroke="var(--t)" stroke-width="0.5" mask="url(#imagine-text-gaps-oalb8s)" style="fill:rgb(0, 0, 0);stroke:rgb(56, 54, 46);color:rgb(120, 120, 120);stroke-width:3px;stroke-linecap:butt;stroke-linejoin:miter;opacity:1;font-family:&quot;Anthropic Sans&quot;, -apple-system, BlinkMacSystemFont, &quot;Segoe UI&quot;, sans-serif;font-size:16px;font-weight:800;text-anchor:start;dominant-baseline:auto"/>
</svg>